<svg xmlns="http://www.w3.org/2000/svg" viewBox="0 0 64 64" width="64" height="64">
  <defs>
    <linearGradient id="grad1" x1="0%" y1="0%" x2="100%" y2="100%">
      <stop offset="0%" style="stop-color:#8B5CF6;stop-opacity:1" />
      <stop offset="50%" style="stop-color:#EC4899;stop-opacity:1" />
      <stop offset="100%" style="stop-color:#3B82F6;stop-opacity:1" />
    </linearGradient>
    <linearGradient id="grad2" x1="0%" y1="0%" x2="100%" y2="100%">
      <stop offset="0%" style="stop-color:#3B82F6;stop-opacity:1" />
      <stop offset="100%" style="stop-color:#8B5CF6;stop-opacity:1" />
    </linearGradient>
  </defs>
  
  <!-- Background circle with gradient -->
  <circle cx="32" cy="32" r="30" fill="url(#grad1)"/>
  
  <!-- Stylized "G" for GreatnBlessed -->
  <path d="M 32 16 C 22 16 16 22 16 32 C 16 42 22 48 32 48 C 38 48 42 46 45 42 L 40 40 C 38 43 35 44 32 44 C 25 44 20 39 20 32 C 20 25 25 20 32 20 C 35 20 38 21 40 23 L 42 18 C 39 16 36 16 32 16 Z" 
        fill="white" 
        stroke="white" 
        stroke-width="1" 
        stroke-linecap="round" 
        stroke-linejoin="round"/>
  
  <!-- Horizontal line for "G" -->
  <line x1="32" y1="32" x2="40" y2="32" stroke="white" stroke-width="2.5" stroke-linecap="round"/>
  
  <!-- Artistic paintbrush/palette element -->
  <path d="M 48 20 L 52 16 L 50 14 L 46 18 Z" fill="url(#grad2)" opacity="0.9"/>
  <circle cx="50" cy="16" r="2.5" fill="white" opacity="0.8"/>
  
  <!-- Small decorative dots -->
  <circle cx="20" cy="20" r="1.5" fill="white" opacity="0.6"/>
  <circle cx="44" cy="44" r="1.5" fill="white" opacity="0.6"/>
</svg>

